<svg width="256" height="256" viewBox="0 0 256 256" xmlns="http://www.w3.org/2000/svg"><title>icon</title><desc>Created with Sketch.</desc><g fill="none"><path fill="#417097" d="M0 0h256v256H0z"/><path d="M190.175 115.466h-14.09c1.028 3.985 1.634 8.148 1.634 12.453 0 27.505-22.296 49.8-49.8 49.8-27.5 0-49.795-22.295-49.795-49.8 0-4.307.61-8.47 1.636-12.455H65.67v68.478c0 3.433 2.788 6.22 6.23 6.22h112.043c3.443 0 6.23-2.787 6.23-6.22v-68.478zm0-43.57c0-3.437-2.788-6.225-6.23-6.225h-18.67c-3.44 0-6.225 2.79-6.225 6.226v18.677c0 3.436 2.785 6.224 6.224 6.224h18.67c3.443 0 6.23-2.788 6.23-6.224V71.895zm-62.253 24.9c-17.19 0-31.124 13.933-31.124 31.123 0 17.186 13.934 31.126 31.124 31.126 17.19 0 31.128-13.94 31.128-31.128 0-17.19-13.937-31.124-31.128-31.124zm62.253 112.05H65.67c-10.31 0-18.67-8.364-18.67-18.682V65.67C47 55.36 55.36 47 65.67 47h124.505c10.312 0 18.67 8.36 18.67 18.67v124.494c0 10.318-8.358 18.68-18.67 18.68z" fill="#fff"/></g></svg>