<svg width="256" height="256" viewBox="0 0 256 256" xmlns="http://www.w3.org/2000/svg"><title>icon@2x</title><g fill="none" fill-rule="evenodd"><path fill="#FF496C" d="M0 0h256v256H0z"/><g fill="#FFF"><path d="M127.5 65.623c20.153 0 22.54.077 30.499.44 7.359.336 11.355 1.565 14.015 2.599 3.523 1.369 6.037 3.005 8.678 5.646 2.641 2.64 4.277 5.155 5.646 8.678 1.034 2.66 2.263 6.656 2.599 14.015.363 7.959.44 10.346.44 30.499s-.077 22.54-.44 30.499c-.336 7.359-1.565 11.355-2.6 14.015-1.368 3.523-3.004 6.037-5.645 8.678-2.64 2.641-5.155 4.277-8.678 5.646-2.66 1.033-6.656 2.263-14.015 2.599-7.958.363-10.345.44-30.499.44-20.154 0-22.541-.077-30.499-.44-7.359-.336-11.355-1.566-14.015-2.6-3.523-1.368-6.037-3.004-8.678-5.645-2.641-2.64-4.277-5.155-5.646-8.678-1.033-2.66-2.263-6.656-2.599-14.015-.363-7.959-.44-10.346-.44-30.499s.077-22.54.44-30.499c.336-7.359 1.566-11.355 2.6-14.015 1.368-3.523 3.004-6.037 5.645-8.678 2.64-2.641 5.155-4.277 8.678-5.646 2.66-1.034 6.656-2.263 14.015-2.599 7.959-.363 10.346-.44 30.499-.44m0-13.6c-20.498 0-23.068.088-31.119.455-8.033.367-13.52 1.642-18.32 3.508-4.964 1.93-9.173 4.51-13.37 8.706-4.195 4.196-6.776 8.405-8.705 13.368-1.866 4.801-3.141 10.288-3.508 18.321-.367 8.05-.454 10.62-.454 31.119 0 20.498.087 23.069.454 31.119.367 8.033 1.642 13.52 3.508 18.32 1.93 4.964 4.51 9.173 8.706 13.37 4.196 4.195 8.405 6.776 13.368 8.705 4.801 1.866 10.288 3.141 18.321 3.508 8.05.367 10.62.454 31.119.454 20.498 0 23.069-.087 31.119-.454 8.033-.367 13.52-1.642 18.32-3.508 4.964-1.93 9.173-4.51 13.37-8.706 4.195-4.196 6.776-8.405 8.705-13.368 1.866-4.801 3.141-10.288 3.508-18.321.367-8.05.454-10.62.454-31.119 0-20.498-.087-23.069-.454-31.119-.367-8.033-1.642-13.52-3.508-18.32-1.93-4.964-4.51-9.173-8.706-13.37-4.196-4.195-8.405-6.776-13.368-8.705-4.801-1.866-10.288-3.141-18.321-3.508-8.05-.367-10.62-.454-31.119-.454"/><path d="M176.846 87.21a9.057 9.057 0 1 1-18.114 0 9.057 9.057 0 0 1 9.057-9.056 9.057 9.057 0 0 1 9.057 9.057M127.5 88.742c-21.405 0-38.758 17.353-38.758 38.758s17.353 38.758 38.758 38.758 38.758-17.353 38.758-38.758-17.353-38.758-38.758-38.758zm0 63.917c-13.895 0-25.159-11.264-25.159-25.159s11.264-25.159 25.159-25.159 25.159 11.264 25.159 25.159-11.264 25.159-25.159 25.159z"/></g></g></svg>